<svg xmlns="http://www.w3.org/2000/svg" xmlns:xlink="http://www.w3.org/1999/xlink" width="1800" height="1100" viewBox="0 0 1800 1100">
  <defs>
    <linearGradient id="bg" x1="0" y1="0" x2="1" y2="1">
      <stop offset="0" stop-color="#f7f1e5"/>
      <stop offset="1" stop-color="#e8decd"/>
    </linearGradient>
    <linearGradient id="heroShade" x1="0" y1="0" x2="0" y2="1">
      <stop offset="0" stop-color="#041417" stop-opacity="0.03"/>
      <stop offset="1" stop-color="#041417" stop-opacity="0.94"/>
    </linearGradient>
    <linearGradient id="cameraShade" x1="0" y1="0" x2="0" y2="1">
      <stop offset="0" stop-color="#041417" stop-opacity="0.02"/>
      <stop offset="0.63" stop-color="#041417" stop-opacity="0.12"/>
      <stop offset="1" stop-color="#041417" stop-opacity="0.92"/>
    </linearGradient>
    <filter id="shadow" x="-30%" y="-20%" width="160%" height="160%">
      <feDropShadow dx="0" dy="24" stdDeviation="24" flood-color="#041417" flood-opacity="0.2"/>
    </filter>
    <clipPath id="homeClip"><rect x="191" y="188" width="338" height="730" rx="38"/></clipPath>
    <clipPath id="catalogClip"><rect x="731" y="188" width="338" height="730" rx="38"/></clipPath>
    <clipPath id="arClip"><rect x="1271" y="188" width="338" height="730" rx="38"/></clipPath>
  </defs>

  <rect width="1800" height="1100" fill="url(#bg)"/>
  <circle cx="147" cy="176" r="190" fill="#d2b06a" opacity="0.12"/>
  <circle cx="1660" cy="1000" r="260" fill="#1e6a68" opacity="0.1"/>

  <text x="900" y="62" text-anchor="middle" font-family="DejaVu Sans, sans-serif" font-size="15" font-weight="700" letter-spacing="4" fill="#d2b06a">LOZA OPTIQUE · MOBILE 1.0</text>
  <text x="900" y="112" text-anchor="middle" font-family="DejaVu Serif, serif" font-size="42" font-weight="700" fill="#07272d">Une expérience plus riche que le site.</text>
  <text x="900" y="146" text-anchor="middle" font-family="DejaVu Sans, sans-serif" font-size="16" fill="#6e7e7c">Design premium · Catalogue complet · Virtual Mirror 2.5D</text>

  <!-- HOME PHONE -->
  <g filter="url(#shadow)">
    <rect x="176" y="173" width="368" height="760" rx="51" fill="#041417"/>
    <rect x="191" y="188" width="338" height="730" rx="38" fill="#f5f0e6"/>
  </g>
  <g clip-path="url(#homeClip)">
    <rect x="191" y="188" width="338" height="730" fill="#f5f0e6"/>
    <text x="214" y="234" font-family="DejaVu Sans, sans-serif" font-size="18" font-weight="900" letter-spacing="5" fill="#07272d">LOZA</text>
    <circle cx="495" cy="226" r="18" fill="#fffcf6" stroke="#ded5c6"/>
    <path d="M489 226h12M495 220v12" stroke="#d2b06a" stroke-width="2"/>
    <rect x="207" y="254" width="306" height="410" rx="28" fill="#16464b"/>
    <image x="207" y="254" width="306" height="410" preserveAspectRatio="xMidYMid slice" xlink:href="preview-assets/alpine-women.png"/>
    <rect x="207" y="254" width="306" height="410" rx="28" fill="url(#heroShade)"/>
    <text x="228" y="286" font-family="DejaVu Sans, sans-serif" font-size="7" font-weight="700" letter-spacing="1.5" fill="#ffffff">LOZA EDIT · CASABLANCA</text>
    <text x="228" y="498" font-family="DejaVu Sans, sans-serif" font-size="8" font-weight="700" letter-spacing="1.8" fill="#e7ca8b">NOUVELLE EXPÉRIENCE</text>
    <text x="228" y="536" font-family="DejaVu Serif, serif" font-size="29" font-weight="700" fill="#ffffff">Votre regard,</text>
    <text x="228" y="568" font-family="DejaVu Serif, serif" font-size="29" font-weight="700" fill="#ffffff">notre précision.</text>
    <text x="228" y="592" font-family="DejaVu Sans, sans-serif" font-size="8" fill="#ffffff" opacity="0.82">Collections, rendez-vous et essayage virtuel.</text>
    <rect x="228" y="613" width="114" height="34" rx="17" fill="#e7ca8b"/>
    <text x="285" y="634" text-anchor="middle" font-family="DejaVu Sans, sans-serif" font-size="7" font-weight="900" letter-spacing="1" fill="#07272d">DÉCOUVRIR</text>
    <rect x="349" y="613" width="143" height="34" rx="17" fill="#07272d" fill-opacity="0.45" stroke="#ffffff" stroke-opacity="0.5"/>
    <text x="420" y="634" text-anchor="middle" font-family="DejaVu Sans, sans-serif" font-size="7" font-weight="900" letter-spacing="0.7" fill="#ffffff">ESSAYER EN AR</text>
    <text x="212" y="701" font-family="DejaVu Sans, sans-serif" font-size="7" font-weight="900" letter-spacing="1.7" fill="#d2b06a">SÉLECTION LOZA</text>
    <text x="212" y="730" font-family="DejaVu Serif, serif" font-size="22" font-weight="700" fill="#07272d">Persol en vedette</text>
    <rect x="207" y="749" width="145" height="112" rx="18" fill="#e4d8bd"/>
    <circle cx="279" cy="801" r="47" fill="#ffffff" opacity="0.28"/>
    <image x="214" y="766" width="130" height="67" preserveAspectRatio="xMidYMid meet" xlink:href="preview-assets/po2496sz.png"/>
    <text x="214" y="879" font-family="DejaVu Sans, sans-serif" font-size="7" font-weight="800" fill="#07272d">ALPINE SIGNATURE</text>
    <rect x="364" y="749" width="145" height="112" rx="18" fill="#e9dcdd"/>
    <circle cx="436" cy="801" r="47" fill="#ffffff" opacity="0.28"/>
    <image x="371" y="766" width="130" height="67" preserveAspectRatio="xMidYMid meet" xlink:href="preview-assets/po1019s.png"/>
    <text x="371" y="879" font-family="DejaVu Sans, sans-serif" font-size="7" font-weight="800" fill="#07272d">OR VIOLET</text>
    <rect x="191" y="882" width="338" height="36" fill="#07272d"/>
    <text x="219" y="905" font-family="DejaVu Sans, sans-serif" font-size="7" fill="#e7ca8b">ACCUEIL</text>
    <text x="299" y="905" font-family="DejaVu Sans, sans-serif" font-size="7" fill="#8ea2a2">COLLECTIONS</text>
    <circle cx="360" cy="884" r="24" fill="#d2b06a" stroke="#07272d" stroke-width="4"/>
    <text x="360" y="890" text-anchor="middle" font-family="DejaVu Sans" font-size="13" font-weight="900" fill="#07272d">AR</text>
    <text x="423" y="905" font-family="DejaVu Sans, sans-serif" font-size="7" fill="#8ea2a2">FAVORIS</text>
    <text x="486" y="905" font-family="DejaVu Sans, sans-serif" font-size="7" fill="#8ea2a2">PROFIL</text>
  </g>

  <!-- CATALOG PHONE -->
  <g filter="url(#shadow)">
    <rect x="716" y="173" width="368" height="760" rx="51" fill="#041417"/>
    <rect x="731" y="188" width="338" height="730" rx="38" fill="#f5f0e6"/>
  </g>
  <g clip-path="url(#catalogClip)">
    <rect x="731" y="188" width="338" height="730" fill="#f5f0e6"/>
    <text x="754" y="234" font-family="DejaVu Sans, sans-serif" font-size="18" font-weight="900" letter-spacing="5" fill="#07272d">LOZA</text>
    <text x="754" y="280" font-family="DejaVu Sans, sans-serif" font-size="8" font-weight="900" letter-spacing="1.7" fill="#d2b06a">CATALOGUE LOZA</text>
    <text x="754" y="320" font-family="DejaVu Serif, serif" font-size="27" font-weight="700" fill="#07272d">Choisissez votre</text>
    <text x="754" y="350" font-family="DejaVu Serif, serif" font-size="27" font-weight="700" fill="#07272d">prochaine monture.</text>
    <rect x="754" y="370" width="292" height="46" rx="16" fill="#fffcf6" stroke="#ded5c6"/>
    <circle cx="776" cy="393" r="7" fill="none" stroke="#6e7e7c" stroke-width="2"/>
    <path d="M781 398l6 6" stroke="#6e7e7c" stroke-width="2"/>
    <text x="798" y="397" font-family="DejaVu Sans, sans-serif" font-size="9" fill="#6e7e7c">Modèle, code ou collection</text>
    <rect x="754" y="430" width="50" height="28" rx="14" fill="#07272d"/>
    <text x="779" y="448" text-anchor="middle" font-family="DejaVu Sans" font-size="7" font-weight="700" fill="#ffffff">Tout</text>
    <rect x="812" y="430" width="60" height="28" rx="14" fill="#fffcf6" stroke="#ded5c6"/>
    <text x="842" y="448" text-anchor="middle" font-family="DejaVu Sans" font-size="7" fill="#6e7e7c">Solaire</text>
    <rect x="880" y="430" width="45" height="28" rx="14" fill="#fffcf6" stroke="#ded5c6"/>
    <text x="902" y="448" text-anchor="middle" font-family="DejaVu Sans" font-size="7" fill="#6e7e7c">Vue</text>
    <rect x="933" y="430" width="82" height="28" rx="14" fill="#fffcf6" stroke="#ded5c6"/>
    <text x="974" y="448" text-anchor="middle" font-family="DejaVu Sans" font-size="7" fill="#6e7e7c">Accessoire</text>
    <text x="754" y="485" font-family="DejaVu Sans" font-size="7" font-weight="900" letter-spacing="1.3" fill="#d2b06a">18 ARTICLES</text>
    <rect x="754" y="505" width="137" height="160" rx="19" fill="#e3cbb8"/>
    <circle cx="822" cy="574" r="51" fill="#ffffff" opacity="0.28"/>
    <image x="761" y="535" width="123" height="79" preserveAspectRatio="xMidYMid meet" xlink:href="preview-assets/po3393s.png"/>
    <rect x="901" y="505" width="137" height="160" rx="19" fill="#cfdee0"/>
    <circle cx="969" cy="574" r="51" fill="#ffffff" opacity="0.28"/>
    <image x="908" y="535" width="123" height="79" preserveAspectRatio="xMidYMid meet" xlink:href="preview-assets/po3318v.png"/>
    <text x="758" y="687" font-family="DejaVu Sans" font-size="7" font-weight="800" fill="#d2b06a">PERSOL · PO3393S</text>
    <text x="758" y="705" font-family="DejaVu Sans" font-size="11" font-weight="800" fill="#07272d">Havane Solaire</text>
    <text x="905" y="687" font-family="DejaVu Sans" font-size="7" font-weight="800" fill="#d2b06a">PERSOL · PO3318V</text>
    <text x="905" y="705" font-family="DejaVu Sans" font-size="11" font-weight="800" fill="#07272d">Indigo Optical</text>
    <rect x="754" y="729" width="137" height="134" rx="19" fill="#c8d4d0"/>
    <image x="761" y="754" width="123" height="75" preserveAspectRatio="xMidYMid meet" xlink:href="preview-assets/po3342s.png"/>
    <rect x="901" y="729" width="137" height="134" rx="19" fill="#ddd1bc"/>
    <image x="908" y="744" width="123" height="95" preserveAspectRatio="xMidYMid meet" xlink:href="preview-assets/premium-care.png"/>
    <rect x="731" y="882" width="338" height="36" fill="#07272d"/>
    <text x="759" y="905" font-family="DejaVu Sans" font-size="7" fill="#8ea2a2">ACCUEIL</text>
    <text x="839" y="905" font-family="DejaVu Sans" font-size="7" fill="#e7ca8b">COLLECTIONS</text>
    <circle cx="900" cy="884" r="24" fill="#d2b06a" stroke="#07272d" stroke-width="4"/>
    <text x="900" y="890" text-anchor="middle" font-family="DejaVu Sans" font-size="13" font-weight="900" fill="#07272d">AR</text>
    <text x="963" y="905" font-family="DejaVu Sans" font-size="7" fill="#8ea2a2">FAVORIS</text>
    <text x="1026" y="905" font-family="DejaVu Sans" font-size="7" fill="#8ea2a2">PROFIL</text>
  </g>

  <!-- AR PHONE -->
  <g filter="url(#shadow)">
    <rect x="1256" y="173" width="368" height="760" rx="51" fill="#041417"/>
    <rect x="1271" y="188" width="338" height="730" rx="38" fill="#102f36"/>
  </g>
  <g clip-path="url(#arClip)">
    <image x="1271" y="188" width="338" height="730" preserveAspectRatio="xMidYMid slice" xlink:href="preview-assets/ar-portrait.png"/>
    <rect x="1271" y="188" width="338" height="730" fill="url(#cameraShade)"/>
    <circle cx="1306" cy="233" r="19" fill="#041417" fill-opacity="0.72" stroke="#ffffff" stroke-opacity="0.2"/>
    <text x="1306" y="241" text-anchor="middle" font-family="DejaVu Sans" font-size="24" fill="#ffffff">‹</text>
    <text x="1440" y="229" text-anchor="middle" font-family="DejaVu Sans" font-size="13" font-weight="900" letter-spacing="5" fill="#ffffff">LOZA</text>
    <text x="1440" y="244" text-anchor="middle" font-family="DejaVu Sans" font-size="6" font-weight="900" letter-spacing="1.4" fill="#e7ca8b">VIRTUAL MIRROR</text>
    <rect x="1530" y="215" width="63" height="30" rx="15" fill="#041417" fill-opacity="0.72"/>
    <circle cx="1543" cy="230" r="3" fill="#73d7a7"/>
    <text x="1565" y="233" text-anchor="middle" font-family="DejaVu Sans" font-size="6" font-weight="900" fill="#ffffff">2.5D</text>
    <ellipse cx="1440" cy="426" rx="105" ry="151" fill="none" stroke="#e7ca8b" stroke-opacity="0.5" stroke-dasharray="5 6"/>
    <image x="1310" y="405" width="260" height="112" preserveAspectRatio="xMidYMid meet" xlink:href="preview-assets/po3393s-ar.png"/>
    <rect x="1356" y="552" width="168" height="31" rx="16" fill="#041417" fill-opacity="0.68"/>
    <text x="1440" y="572" text-anchor="middle" font-family="DejaVu Sans" font-size="8" font-weight="800" fill="#ffffff">Tournez doucement la tête</text>
    <g fill="#041417" fill-opacity="0.76" stroke="#ffffff" stroke-opacity="0.18">
      <circle cx="1368" cy="614" r="18"/><circle cx="1404" cy="614" r="18"/><circle cx="1440" cy="614" r="18"/><circle cx="1476" cy="614" r="18"/><circle cx="1512" cy="614" r="18"/>
    </g>
    <text x="1368" y="620" text-anchor="middle" font-family="DejaVu Sans" font-size="18" fill="#ffffff">−</text>
    <text x="1404" y="619" text-anchor="middle" font-family="DejaVu Sans" font-size="13" fill="#ffffff">↑</text>
    <text x="1440" y="619" text-anchor="middle" font-family="DejaVu Sans" font-size="11" fill="#e7ca8b">◎</text>
    <text x="1476" y="619" text-anchor="middle" font-family="DejaVu Sans" font-size="13" fill="#ffffff">↓</text>
    <text x="1512" y="620" text-anchor="middle" font-family="DejaVu Sans" font-size="18" fill="#ffffff">+</text>
    <path d="M1271 685Q1271 655 1301 655H1579Q1609 655 1609 685V918H1271Z" fill="#041417" fill-opacity="0.94"/>
    <text x="1440" y="690" text-anchor="middle" font-family="DejaVu Sans" font-size="7" font-weight="900" letter-spacing="1.4" fill="#e7ca8b">PO3393S · 56–20</text>
    <text x="1440" y="718" text-anchor="middle" font-family="DejaVu Serif" font-size="21" font-weight="700" fill="#ffffff">Havane Solaire</text>
    <rect x="1289" y="740" width="72" height="58" rx="14" fill="#e3cbb8" stroke="#e7ca8b" stroke-width="2"/>
    <image x="1295" y="751" width="60" height="35" preserveAspectRatio="xMidYMid meet" xlink:href="preview-assets/po3393s.png"/>
    <rect x="1370" y="740" width="72" height="58" rx="14" fill="#d3d5d1"/>
    <image x="1376" y="751" width="60" height="35" preserveAspectRatio="xMidYMid meet" xlink:href="preview-assets/po3264s.png"/>
    <rect x="1451" y="740" width="72" height="58" rx="14" fill="#cfdee0"/>
    <image x="1457" y="751" width="60" height="35" preserveAspectRatio="xMidYMid meet" xlink:href="preview-assets/po3318v.png"/>
    <rect x="1532" y="740" width="72" height="58" rx="14" fill="#e6d9b8"/>
    <image x="1538" y="751" width="60" height="35" preserveAspectRatio="xMidYMid meet" xlink:href="preview-assets/po1018s.png"/>
    <text x="1440" y="830" text-anchor="middle" font-family="DejaVu Sans" font-size="7" letter-spacing="0.5" fill="#8ea2a2">TRAITEMENT LOCAL · AUCUNE PHOTO ENVOYÉE</text>
  </g>

  <text x="360" y="985" text-anchor="middle" font-family="DejaVu Sans" font-size="12" font-weight="900" letter-spacing="2" fill="#d2b06a">01 · ACCUEIL ÉDITORIAL</text>
  <text x="360" y="1012" text-anchor="middle" font-family="DejaVu Sans" font-size="13" fill="#6e7e7c">Immersif, rapide, centré sur les services.</text>
  <text x="900" y="985" text-anchor="middle" font-family="DejaVu Sans" font-size="12" font-weight="900" letter-spacing="2" fill="#d2b06a">02 · CATALOGUE MOBILE</text>
  <text x="900" y="1012" text-anchor="middle" font-family="DejaVu Sans" font-size="13" fill="#6e7e7c">18 pièces, filtres, recherche et favoris.</text>
  <text x="1440" y="985" text-anchor="middle" font-family="DejaVu Sans" font-size="12" font-weight="900" letter-spacing="2" fill="#d2b06a">03 · VIRTUAL MIRROR 2.5D</text>
  <text x="1440" y="1012" text-anchor="middle" font-family="DejaVu Sans" font-size="13" fill="#6e7e7c">10 calibrations, suivi visage et réglage fin.</text>
  <rect x="730" y="1045" width="340" height="34" rx="17" fill="#07272d"/>
  <text x="900" y="1067" text-anchor="middle" font-family="DejaVu Sans" font-size="8" font-weight="900" letter-spacing="1.8" fill="#e7ca8b">DESIGN IMPLEMENTED · RELEASE CANDIDATE</text>
</svg>
